<?xml version="1.0" encoding="utf-8"?>
<!-- Generator: Adobe Illustrator 23.0.3, SVG Export Plug-In . SVG Version: 6.00 Build 0)  -->
<svg version="1.1" id="圖層_1" xmlns="http://www.w3.org/2000/svg" xmlns:xlink="http://www.w3.org/1999/xlink" x="0px" y="0px"
	 viewBox="0 0 600 78.59" style="enable-background:new 0 0 600 78.59;" xml:space="preserve">
<g>
	<polygon points="227.41,49.12 232.82,55.12 406.06,55.12 399.97,49.12 	"/>
	<polygon points="570.29,39.24 535.65,39.24 531.47,39.24 405.76,39.24 396.35,39.24 254.27,39.24 246.81,32.88 168.74,33.2 
		161.76,24.63 69.65,24.63 60.9,38.06 28.82,38.06 28.82,39.82 67.65,39.82 67.65,39.81 174.12,39.81 220.86,39.81 226.67,46.29 
		402.05,46.29 408.12,53.82 515.88,53.82 533.26,41 570.29,41 	"/>
</g>
<polygon points="51.18,54.88 41.29,54.88 30,42.12 39.88,42.12 "/>
<polygon points="63.18,54.88 53.29,54.88 42,42.12 51.88,42.12 "/>
<polygon points="75.18,54.88 65.29,54.88 54,42.12 63.88,42.12 "/>
</svg>
